<svg xmlns="http://www.w3.org/2000/svg" xmlns:xlink="http://www.w3.org/1999/xlink" width="1000" height="1000" class="icon" p-id="15245" t="1587611710727" version="1.1" viewBox="0 0 1024 1024"><defs><style type="text/css"/></defs><path fill="#18bc9c" d="M512 39.384615C250.092308 39.384615 39.384615 250.092308 39.384615 512s210.707692 472.615385 472.615385 472.615385 472.615385-210.707692 472.615385-472.615385S773.907692 39.384615 512 39.384615z m263.876923 354.461539L474.584615 699.076923c-11.815385 11.815385-31.507692 11.815385-43.323077 0L265.846154 531.692308c-11.815385-11.815385-11.815385-31.507692 0-43.323077l43.323077-43.323077c11.815385-11.815385 31.507692-11.815385 43.323077 0l86.646154 88.615384c7.876923 7.876923 21.661538 7.876923 29.538461 0L689.230769 305.230769c11.815385-11.815385 31.507692-11.815385 43.323077 0l43.323077 43.323077c13.784615 11.815385 13.784615 31.507692 0 45.292308z" p-id="15246"/></svg>